<?xml version="1.0" encoding="utf-8" ?>
<svg baseProfile="full" height="200mm" version="1.1" viewBox="0,0,200,200" width="200mm" xmlns="http://www.w3.org/2000/svg" xmlns:ev="http://www.w3.org/2001/xml-events" xmlns:xlink="http://www.w3.org/1999/xlink"><defs /><rect fill="#1a1a1a" height="200" width="200" x="0" y="0" /><text alignment-baseline="middle" fill="#e1ed5e" style="dominant-baseline: central; font-size:9.0px; font-family:Arial;" text-anchor="middle" x="100.0" y="100.0">2023</text><line stroke="#e1ed5e" stroke-width="0.3" x1="100.0" x2="100.0" y1="15.0" y2="10.0" /><path d="M 100.0 14.0 a86.0,86.0 0 0,1 42.46469731375804,11.215312516191453" fill="none" id="id25" stroke="none" /><text fill="#e1ed5e" style="font-size:6.75px; font-family:Arial;" text-anchor="middle"><textPath startOffset="22.20632615414155" xlink:href="#id25">January</textPath></text><line stroke="#e1ed5e" stroke-width="0.3" x1="143.23703022742887" x2="145.7803849466894" y1="26.81831364943548" y2="22.513508569990506" /><path d="M 143.74570117128098 25.957352633546492 a86.0,86.0 0 0,1 28.547481713284135,27.462654790039103" fill="none" id="id26" stroke="none" /><text fill="#e1ed5e" style="font-size:6.75px; font-family:Arial;" text-anchor="middle"><textPath startOffset="19.985693538727396" xlink:href="#id26">February</textPath></text><line stroke="#e1ed5e" stroke-width="0.3" x1="172.23445277983987" x2="176.4835382374775" y1="55.19839476539836" y2="52.563006222186495" /><path d="M 173.08426987136738 54.67131705675599 a86.0,86.0 0 0,1 12.851231095245387,41.99856678651699" fill="none" id="id27" stroke="none" /><text fill="#e1ed5e" style="font-size:6.75px; font-family:Arial;" text-anchor="middle"><textPath startOffset="22.20632615414155" xlink:href="#id27">March</textPath></text><line stroke="#e1ed5e" stroke-width="0.3" x1="184.98032266829074" x2="189.97916517819016" y1="98.17113171792111" y2="98.06355123074" /><path d="M 185.9800911702706 98.14961562048488 a86.0,86.0 0 0,1 -9.607161424134198,41.387399972396054" fill="none" id="id28" stroke="none" /><text fill="#e1ed5e" style="font-size:6.75px; font-family:Arial;" text-anchor="middle"><textPath startOffset="21.466115282336823" xlink:href="#id28">April</textPath></text><line stroke="#e1ed5e" stroke-width="0.3" x1="174.80103733775053" x2="179.2010983576182" y1="140.37084112569926" y2="142.7455964860345" /><path d="M 175.68104954172406 140.8457921977663 a86.0,86.0 0 0,1 -30.038265399797805,32.042727171017184" fill="none" id="id29" stroke="none" /><text fill="#e1ed5e" style="font-size:6.75px; font-family:Arial;" text-anchor="middle"><textPath startOffset="22.206326154141568" xlink:href="#id29">May</textPath></text><line stroke="#e1ed5e" stroke-width="0.3" x1="143.8653032363475" x2="146.44561519142675" y1="172.8068346515853" y2="177.08958963109032" /><path d="M 144.38136562736335 173.6633856474863 a86.0,86.0 0 0,1 -40.68145358897372,12.25698825130547" fill="none" id="id30" stroke="none" /><text fill="#e1ed5e" style="font-size:6.75px; font-family:Arial;" text-anchor="middle"><textPath startOffset="21.466115282336833" xlink:href="#id30">June</textPath></text><line stroke="#e1ed5e" stroke-width="0.3" x1="102.19456741930631" x2="102.32365962044197" y1="184.97166512339345" y2="189.96999836594603" /><path d="M 102.22038585953345 185.97133177190398 a86.0,86.0 0 0,1 -42.740103519485714,-10.115201625700543" fill="none" id="id31" stroke="none" /><text fill="#e1ed5e" style="font-size:6.75px; font-family:Arial;" text-anchor="middle"><textPath startOffset="22.20632615414155" xlink:href="#id31">July</textPath></text><line stroke="#e1ed5e" stroke-width="0.3" x1="58.666819895761336" x2="56.23545636021788" y1="174.27360380694188" y2="178.64263932499728" /><path d="M 58.180547188652646 175.14741091055294 a86.0,86.0 0 0,1 -31.652253787137756,-30.449443065178592" fill="none" id="id32" stroke="none" /><text fill="#e1ed5e" style="font-size:6.75px; font-family:Arial;" text-anchor="middle"><textPath startOffset="22.20632615414155" xlink:href="#id32">August</textPath></text><line stroke="#e1ed5e" stroke-width="0.3" x1="26.63291911575756" x2="22.317208475507996" y1="142.92168965132927" y2="145.44649492493687" /><path d="M 25.769776987707644 143.4266507060508 a86.0,86.0 0 0,1 -11.730757126820373,-40.83630448921669" fill="none" id="id33" stroke="none" /><text fill="#e1ed5e" style="font-size:6.75px; font-family:Arial;" text-anchor="middle"><textPath startOffset="21.46611528233685" xlink:href="#id33">September</textPath></text><path d="M 80.73074385275274 108.34839909993369 l -8.299873004827585 3.595917340741 a30.045358667167793,30.045358667167793 0 0,0 -0.20151710895218145,-0.47632691837129637 l 8.360541094972072 -3.4525158967035448" fill="#ff0a01" stroke="none" /><path d="M 80.20201598880116 107.00284435728193 l -15.46718996717672 5.470977445147071 a37.406265866614504,37.406265866614504 0 0,0 -0.20949142124234324,-0.6088801308908541 l 15.55907221936229 -5.2039246111669195" fill="#ff7f0b" stroke="none" /><path d="M 79.50377843672027 104.57218783832718 l -11.28121103241697 2.5165524155158296 a32.558492912917536,32.558492912917536 0 0,0 -0.11731284113997088,-0.5480465383501486 l 11.322857912281382 -2.3219920577495174" fill="#ff3304" stroke="none" /><path d="M 79.4281124754447 104.21870165774334 l -13.56563945803066 2.7819219603272436 a34.84794799595338,34.84794799595338 0 0,0 -0.11544638465423651,-0.5886586281625826 l 13.611515775660562 -2.547999605096706" fill="#ff5808" stroke="none" /><path d="M 79.35854240842038 103.8639653848113 l -11.299240165543132 2.115154546650742 a32.49550812599602,32.49550812599602 0 0,0 -0.09818836183763095,-0.55069247749707 l 11.333974969719952 -1.9203433184204584" fill="#ff3204" stroke="none" /><path d="M 79.29508885075956 103.50808413554451 l -19.379478891854827 3.2835128808620677 a40.65567752479252,40.65567752479252 0 0,0 -0.1109672433797242,-0.6909931304520593 l 19.43312788959584 -2.9494405207167946" fill="#ffb010" stroke="none" /><path d="M 79.23777060512086 103.15116336523772 l -16.71527020633919 2.5369408126883024 a37.90669473191062,37.90669473191062 0 0,0 -0.09235866708487113,-0.6459563024795671 l 16.75646292444066 -2.2488390382283345" fill="#ff870c" stroke="none" /><path d="M 79.07016306316243 101.71520430193888 l -16.550130672370027 1.3562865020193917 a37.60561165233257,37.60561165233257 0 0,0 -0.04731760349462842,-0.6456111056731587 l 16.57102483452899 -1.0712022598494724" fill="#ff820c" stroke="none" /><path d="M 79.04373962182676 101.35467743843564 l -27.60824796716194 1.7846824748753733 a48.66587152707156,48.66587152707156 0 0,0 -0.04684356432384237,-0.8364233087288587 l 27.634877882373317 -1.309187449811077" fill="#deff1b" stroke="none" /><path d="M 79.0235259727143 100.99374915477108 l -32.33725512018836 1.5319600377786713 a53.373522673096595,53.373522673096595 0 0,0 -0.035576927601972605,-0.9180824188827054 l 32.35883418064154 -0.9751003718819691" fill="#a0ff22" stroke="none" /><path d="M 79.0095281055655 100.63252640178507 l -8.41613742112619 0.2536116932809476 a29.419957718554734,29.419957718554734 0 0,0 -0.010896504140221419,-0.5063177304052137 l 8.41925598795142 -0.10870414708560507" fill="#ff0000" stroke="none" /><line stroke="#e1ed5e" stroke-width="0.3" x1="15.007084014347285" x2="10.007500721073583" y1="101.09737516637583" y2="101.16192664675087" /><path d="M 14.007167355692545 101.11028546245083 a86.0,86.0 0 0,1 10.666146001902534,-42.60595125391555" fill="none" id="id34" stroke="none" /><text fill="#e1ed5e" style="font-size:6.75px; font-family:Arial;" text-anchor="middle"><textPath startOffset="22.20632615414155" xlink:href="#id34">October</textPath></text><path d="M 79.00175016825051 100.2711162175752 l -19.359670776054575 0.2499599136290414 a40.3612843715401,40.3612843715401 0 0,0 -0.002990007595044981,-0.6947724641827558 l 19.361105080939122 0.08332202875738981" fill="#ffac0f" stroke="none" /><path d="M 79.00019446554 99.90962569577889 l -13.651221590018505 -0.058749098935309836 a34.65134800510239,34.65134800510239 0 0,0 0.007700837833398776,-0.5964383768177671 l 13.64818774506739 0.29372373381354894" fill="#ff5507" stroke="none" /><path d="M 79.00486145842228 99.54816195383935 l -17.407460262467882 -0.37462733661111436 a38.41149098815879,38.41149098815879 0 0,0 0.019916002394919478,-0.660915160758932 l 17.398432565617316 0.6742126447950407" fill="#ff8f0d" stroke="none" /><path d="M 79.01574976396665 99.18683210126434 l -16.866615259947714 -0.6536040094567139 a37.879274526124604,37.879274526124604 0 0,0 0.030856081422606492,-0.6513231105029321 l 16.85286557029161 0.9438382265826551" fill="#ff860c" stroke="none" /><path d="M 79.03285615573316 98.82574320788736 l -33.40439506128682 -1.8708002424400647 a54.456740770099486,54.456740770099486 0 0,0 0.06047138145640941,-0.9354655058636596 l 33.367243088826 2.445524812556736" fill="#93ff23" stroke="none" /><path d="M 79.05617556472873 98.46500227214037 l -16.596702314516182 -1.2163919928511893 a37.64121802023335,37.64121802023335 0 0,0 0.05292268531953514,-0.6457908091446599 l 16.573305145377148 1.5018967192036277" fill="#ff830c" stroke="none" /><path d="M 79.12142395522702 97.74499172005258 l -33.15426826451966 -3.580854809818656 a54.34708421023848,54.34708421023848 0 0,0 0.10846033878739626,-0.9292219471177219 l 33.08771757272867 4.15102049526124" fill="#94ff23" stroke="none" /><path d="M 79.21141760316559 97.0276538004421 l -17.354542390925257 -2.481348036919927 a38.531036183829755,38.531036183829755 0 0,0 0.09952769679284587,-0.6557631682168178 l 17.309258800693108 2.7797103175288362" fill="#ff900d" stroke="none" /><path d="M 79.32604984820605 96.31383870115002 l -62.021850455381816 -11.05848389654995 a84.0,84.0 0 0,0 0.2660571043605535,-1.4212876901497093 l 61.8223076271114 12.124449664162231" fill="#4dd2ff" stroke="none" /><path d="M 79.54389044137918 95.25157060432595 l -32.81391868792966 -7.617019044530789 a54.68638061268684,54.68638061268684 0 0,0 0.22074339754327296,-0.9151238940187333 l 32.67794249012557 8.18072817020892" fill="#90ff24" stroke="none" /><path d="M 79.62865764111835 94.90015583598534 l -17.23240258896439 -4.314029297974335 a38.76419285450165,38.76419285450165 0 0,0 0.1676157572988367,-0.6458918876430152 l 17.155590499795245 4.610017611166214" fill="#ff940d" stroke="none" /><path d="M 79.71946130924805 94.55025226153421 l -53.637631129066726 -14.413402099402289 a76.54045042324452,76.54045042324452 0 0,0 0.35286324703712674,-1.2694368435066135 l 53.38158111146324 15.334550246327844" fill="#42ffdb" stroke="none" /><path d="M 79.81627453868168 94.20196356495316 l -16.042372245644362 -4.608379110342645 a37.69116129250637,37.69116129250637 0 0,0 0.1844966243752928,-0.6220308992085256 l 15.960669724157361 4.883839396297709" fill="#ff840c" stroke="none" /><path d="M 80.2630227832202 92.82701384747504 l -28.676731379463433 -10.421950373925084 a51.511833314411966,51.511833314411966 0 0,0 0.31004092232431757,-0.8307555291805956 l 28.49308586863749 10.91402904013502" fill="#b8ff1f" stroke="none" /><path d="M 80.38941819471856 92.48833698450439 l -24.96986103669834 -9.56448837233976 a47.73898648072975,47.73898648072975 0 0,0 0.30054294927920094,-0.7648490241290106 l 24.801524537537446 9.992886401364535" fill="#eaff1a" stroke="none" /><path d="M 80.52162464483688 92.15188598940014 l -15.466345532923796 -6.231610227058445 a37.67455577116738,37.67455577116738 0 0,0 0.24753674536273634,-0.59942986333438 l 15.356787100674861 6.496914660846136" fill="#ff830c" stroke="none" /><path d="M 80.65960295795068 91.81776055985345 l -15.524368089226881 -6.56781226294644 a37.856516914567955,37.856516914567955 0 0,0 0.25906348445814814,-0.5979542401682888 l 15.409013894926053 6.834065647701327" fill="#ff860c" stroke="none" /><path d="M 80.803312248108 91.48605970444005 l -25.27727090559531 -11.210745213258056 a48.65178534329101,48.65178534329101 0 0,0 0.3461173336135259,-0.7626236650262529 l 25.08055125501843 11.64419088712638" fill="#deff1b" stroke="none" /><path d="M 81.10775173730289 90.83032412892265 l -15.04194657922808 -7.300866084526608 a37.720131652488334,37.720131652488334 0 0,0 0.2885410219072043,-0.5816810931531032 l 14.914045544367463 7.558706766178672" fill="#ff840c" stroke="none" /><path d="M 81.6062741919709 89.86733742301443 l -47.55594619208293 -26.197430652321458 a75.29432190392913,75.29432190392913 0 0,0 0.6351339894928183,-1.129832497152696 l 47.097954561297676 27.01214665940894" fill="#41ffcc" stroke="none" /><line stroke="#e1ed5e" stroke-width="0.3" x1="26.266209847984257" x2="21.92892807433627" y1="57.711370442889674" y2="55.22380399835377" /><path d="M 25.39875349325466 57.213857153982495 a86.0,86.0 0 0,1 29.58750427330802,-30.492523968695096" fill="none" id="id35" stroke="none" /><text fill="#e1ed5e" style="font-size:6.75px; font-family:Arial;" text-anchor="middle"><textPath startOffset="21.46611528233685" xlink:href="#id35">November</textPath></text><path d="M 81.96595687620814 89.24020034530311 l -23.797454514009136 -14.198471252666156 a48.71128700113225,48.71128700113225 0 0,0 0.43581339393612367,-0.7163626302147124 l 23.549525321786792 14.606001656087944" fill="#ddff1b" stroke="none" /><path d="M 82.15384107792192 88.93136811851018 l -13.199346862148975 -8.18656340174586 a36.53198563990215,36.53198563990215 0 0,0 0.33604626095085105,-0.5315444831401239 l 13.05647300495216 8.412555532600198" fill="#ff720a" stroke="none" /><path d="M 82.34701348167596 88.62581576622439 l -23.339185777896454 -15.037919993229142 a48.764304970553916,48.764304970553916 0 0,0 0.46071438955192334,-0.7016996230850219 l 23.076874752986612 15.437437680291831" fill="#dcff1b" stroke="none" /><path d="M 82.7489923806493 88.02491185347247 l -22.915046227426505 -15.906879442066675 a48.89494859628777,48.89494859628777 0 0,0 0.4858932727325398,-0.687261575869699 l 22.637840334890086 16.29896751826816" fill="#daff1b" stroke="none" /><path d="M 82.95767976084542 87.72973835380427 l -23.270322705757366 -16.75434707153565 a49.674310185662044,49.674310185662044 0 0,0 0.5055836802033777,-0.6896155716110379 l 22.978476413040358 17.15242508681819" fill="#d0ff1d" stroke="none" /><path d="M 84.07557802195018 86.31012108654704 l -21.49764390605451 -18.48105648067345 a49.3495704050937,49.3495704050937 0 0,0 0.5593142516833504,-0.6393928769187492 l 21.176337790793315 18.848364913795137" fill="#d4ff1c" stroke="none" /><path d="M 84.80347519578584 85.50635884689758 l -16.068014335638274 -15.3248217486583 a43.20430693172898,43.20430693172898 0 0,0 0.5179080007931076,-0.5337497202158322 l 15.80184207114205 15.599135664424256" fill="#ffd513" stroke="none" /><path d="M 85.05521093208273 85.24692304244772 l -19.81389095022229 -19.559717884858433 a48.8419259090055,48.8419259090055 0 0,0 0.5957882318460841,-0.593229727837655 l 19.474266918208894 19.897883463346197" fill="#dbff1b" stroke="none" /><path d="M 85.57189188830299 84.74124197986013 l -38.00791070890528 -40.19608862565245 a76.32022069060665,76.32022069060665 0 0,0 0.9623329879004447,-0.8943836334156712 l 37.31036983720998 40.844376845142776" fill="#42ffd8" stroke="none" /><line stroke="#e1ed5e" stroke-width="0.3" x1="56.762969772571076" x2="54.21961505331055" y1="26.818313649435495" y2="22.513508569990535" /><path d="M 56.25429882871897 25.957352633546506 a86.0,86.0 0 0,1 42.265352541879196,-11.944610805530505" fill="none" id="id36" stroke="none" /><text fill="#e1ed5e" style="font-size:6.75px; font-family:Arial;" text-anchor="middle"><textPath startOffset="22.20632615414155" xlink:href="#id36">December</textPath></text></svg>