<?xml version="1.0" encoding="utf-8" ?>
<svg baseProfile="full" height="200mm" version="1.1" viewBox="0,0,200,200" width="200mm" xmlns="http://www.w3.org/2000/svg" xmlns:ev="http://www.w3.org/2001/xml-events" xmlns:xlink="http://www.w3.org/1999/xlink"><defs /><rect fill="#1a1a1a" height="200" width="200" x="0" y="0" /><text alignment-baseline="middle" fill="#e1ed5e" style="dominant-baseline: central; font-size:9.0px; font-family:Arial;" text-anchor="middle" x="100.0" y="100.0">2022</text><line stroke="#e1ed5e" stroke-width="0.3" x1="100.0" x2="100.0" y1="15.0" y2="10.0" /><path d="M 100.0 14.0 a86.0,86.0 0 0,1 42.46469731375804,11.215312516191453" fill="none" id="id13" stroke="none" /><text fill="#e1ed5e" style="font-size:6.75px; font-family:Arial;" text-anchor="middle"><textPath startOffset="22.20632615414155" xlink:href="#id13">January</textPath></text><line stroke="#e1ed5e" stroke-width="0.3" x1="143.23703022742887" x2="145.7803849466894" y1="26.81831364943548" y2="22.513508569990506" /><path d="M 143.74570117128098 25.957352633546492 a86.0,86.0 0 0,1 28.547481713284135,27.462654790039103" fill="none" id="id14" stroke="none" /><text fill="#e1ed5e" style="font-size:6.75px; font-family:Arial;" text-anchor="middle"><textPath startOffset="19.985693538727396" xlink:href="#id14">February</textPath></text><line stroke="#e1ed5e" stroke-width="0.3" x1="172.23445277983987" x2="176.4835382374775" y1="55.19839476539836" y2="52.563006222186495" /><path d="M 173.08426987136738 54.67131705675599 a86.0,86.0 0 0,1 12.851231095245387,41.99856678651699" fill="none" id="id15" stroke="none" /><text fill="#e1ed5e" style="font-size:6.75px; font-family:Arial;" text-anchor="middle"><textPath startOffset="22.20632615414155" xlink:href="#id15">March</textPath></text><line stroke="#e1ed5e" stroke-width="0.3" x1="184.98032266829074" x2="189.97916517819016" y1="98.17113171792111" y2="98.06355123074" /><path d="M 185.9800911702706 98.14961562048488 a86.0,86.0 0 0,1 -9.607161424134198,41.387399972396054" fill="none" id="id16" stroke="none" /><text fill="#e1ed5e" style="font-size:6.75px; font-family:Arial;" text-anchor="middle"><textPath startOffset="21.466115282336823" xlink:href="#id16">April</textPath></text><line stroke="#e1ed5e" stroke-width="0.3" x1="174.80103733775053" x2="179.2010983576182" y1="140.37084112569926" y2="142.7455964860345" /><path d="M 175.68104954172406 140.8457921977663 a86.0,86.0 0 0,1 -30.038265399797805,32.042727171017184" fill="none" id="id17" stroke="none" /><text fill="#e1ed5e" style="font-size:6.75px; font-family:Arial;" text-anchor="middle"><textPath startOffset="22.206326154141568" xlink:href="#id17">May</textPath></text><line stroke="#e1ed5e" stroke-width="0.3" x1="143.8653032363475" x2="146.44561519142675" y1="172.8068346515853" y2="177.08958963109032" /><path d="M 144.38136562736335 173.6633856474863 a86.0,86.0 0 0,1 -40.68145358897372,12.25698825130547" fill="none" id="id18" stroke="none" /><text fill="#e1ed5e" style="font-size:6.75px; font-family:Arial;" text-anchor="middle"><textPath startOffset="21.466115282336833" xlink:href="#id18">June</textPath></text><line stroke="#e1ed5e" stroke-width="0.3" x1="102.19456741930631" x2="102.32365962044197" y1="184.97166512339345" y2="189.96999836594603" /><path d="M 102.22038585953345 185.97133177190398 a86.0,86.0 0 0,1 -42.740103519485714,-10.115201625700543" fill="none" id="id19" stroke="none" /><text fill="#e1ed5e" style="font-size:6.75px; font-family:Arial;" text-anchor="middle"><textPath startOffset="22.20632615414155" xlink:href="#id19">July</textPath></text><line stroke="#e1ed5e" stroke-width="0.3" x1="58.666819895761336" x2="56.23545636021788" y1="174.27360380694188" y2="178.64263932499728" /><path d="M 58.180547188652646 175.14741091055294 a86.0,86.0 0 0,1 -31.652253787137756,-30.449443065178592" fill="none" id="id20" stroke="none" /><text fill="#e1ed5e" style="font-size:6.75px; font-family:Arial;" text-anchor="middle"><textPath startOffset="22.20632615414155" xlink:href="#id20">August</textPath></text><line stroke="#e1ed5e" stroke-width="0.3" x1="26.63291911575756" x2="22.317208475507996" y1="142.92168965132927" y2="145.44649492493687" /><path d="M 25.769776987707644 143.4266507060508 a86.0,86.0 0 0,1 -11.730757126820373,-40.83630448921669" fill="none" id="id21" stroke="none" /><text fill="#e1ed5e" style="font-size:6.75px; font-family:Arial;" text-anchor="middle"><textPath startOffset="21.46611528233685" xlink:href="#id21">September</textPath></text><path d="M 79.29508885075956 103.50808413554451 l -31.42992200975648 5.32524916378947 a52.87786498804171,52.87786498804171 0 0,0 -0.14432697401119418,-0.8987242049385759 l 31.516930738128966 -4.78344572915768" fill="#ff9c0e" stroke="none" /><path d="M 79.1416061653843 102.43462659150553 l -24.848711505487767 2.900383139545059 a46.01740765625242,46.01740765625242 0 0,0 -0.08506142171921872,-0.7875631223325957 l 24.89495522870804 -2.4722236953276813" fill="#ff0000" stroke="none" /><path d="M 79.10278846688536 102.07522291339032 l -30.104696616420597 2.9895833767132465 a51.25277453611562,51.25277453611562 0 0,0 -0.07962583148384786,-0.8786644153107501 l 30.151697044181518 -2.4709375728539302" fill="#ff780b" stroke="none" /><line stroke="#e1ed5e" stroke-width="0.3" x1="15.007084014347285" x2="10.007500721073583" y1="101.09737516637583" y2="101.16192664675087" /><path d="M 14.007167355692545 101.11028546245083 a86.0,86.0 0 0,1 10.666146001902534,-42.60595125391555" fill="none" id="id22" stroke="none" /><text fill="#e1ed5e" style="font-size:6.75px; font-family:Arial;" text-anchor="middle"><textPath startOffset="22.20632615414155" xlink:href="#id22">October</textPath></text><path d="M 79.00486145842228 99.54816195383935 l -42.725450478534285 -0.9194978174268226 a63.735343625972384,63.735343625972384 0 0,0 0.03304618549400201,-1.096642015056663 l 42.70329259858464 1.65480997990848" fill="#8eff24" stroke="none" /><path d="M 79.03285615573316 98.82574320788736 l -34.77107234156457 -1.9473404756216572 a55.82555967547845,55.82555967547845 0 0,0 0.061991383737143864,-0.9589792683776871 l 34.732400366823015 2.545578808252356" fill="#ffd914" stroke="none" /><path d="M 79.12142395522702 97.74499172005258 l -31.560413199780914 -3.4087091443137614 a52.74395973049729,52.74395973049729 0 0,0 0.10526098730943158,-0.9018118574655423 l 31.49706185946789 3.9514647401041656" fill="#ff990e" stroke="none" /><path d="M 79.26566170972629 96.67025291283419 l -45.251967676694235 -7.267056486228718 a66.83176506078092,66.83176506078092 0 0,0 0.19218313730182662,-1.1342757552190488 l 45.12017267787219 8.044918029763595" fill="#58ff2a" stroke="none" /><path d="M 79.32604984820605 96.31383870115002 l -62.021850455381816 -11.05848389654995 a84.0,84.0 0 0,0 0.2660571043605535,-1.4212876901497093 l 61.8223076271114 12.124449664162231" fill="#4dd2ff" stroke="none" /><path d="M 79.3925641242962 95.95851677861259 l -31.577497212573316 -6.192906576430834 a53.179036997313574,53.179036997313574 0 0,0 0.18389995758606975,-0.8967615039302768 l 31.466217959072253 6.735543736524514" fill="#ffa20f" stroke="none" /><path d="M 79.46518482838121 95.60439243477599 l -32.0132167340832 -6.852632297269365 a53.738427192902286,53.738427192902286 0 0,0 0.20140551684589272,-0.9028614403669539 l 31.89051683023527 7.402671907186278" fill="#ffae10" stroke="none" /><path d="M 79.81627453868168 94.20196356495316 l -30.25539283957396 -8.691253276145556 a52.478987902838526,52.478987902838526 0 0,0 0.2568824039027557,-0.866079762876557 l 30.1013045385595 9.210762425768651" fill="#ff930d" stroke="none" /><line stroke="#e1ed5e" stroke-width="0.3" x1="26.266209847984257" x2="21.92892807433627" y1="57.711370442889674" y2="55.22380399835377" /><path d="M 25.39875349325466 57.213857153982495 a86.0,86.0 0 0,1 29.58750427330802,-30.492523968695096" fill="none" id="id23" stroke="none" /><text fill="#e1ed5e" style="font-size:6.75px; font-family:Arial;" text-anchor="middle"><textPath startOffset="21.46611528233685" xlink:href="#id23">November</textPath></text><path d="M 81.96595687620814 89.24020034530311 l -33.833804887117346 -20.18654162256116 a60.39825904553296,60.39825904553296 0 0,0 0.540375175508195,-0.8882347064499001 l 33.48131391332293 20.765944102218132" fill="#cbff1d" stroke="none" /><path d="M 82.7489923806493 88.02491185347247 l -28.901667926827436 -20.062597422842735 a56.18258410497531,56.18258410497531 0 0,0 0.5583141090245509,-0.7896957128890155 l 28.552041197999007 20.557119636063536" fill="#ffe115" stroke="none" /><path d="M 82.95767976084542 87.72973835380427 l -24.8944031596424 -17.923665088331134 a51.6755452905645,51.6755452905645 0 0,0 0.5259521927304187,-0.7173981998073269 l 24.58218835439835 18.349525731809962" fill="#ff810b" stroke="none" /><path d="M 83.17141714833178 87.43820079747576 l -29.261661835948697 -21.842547501194737 a57.514952207874586,57.514952207874586 0 0,0 0.5990430402248833,-0.78827042190007 l 28.881342855499703 22.343002698975834" fill="#fffb17" stroke="none" /><path d="M 84.31358615837235 86.03803664274997 l -25.77837780495493 -22.944490050810884 a55.51049675021721,55.51049675021721 0 0,0 0.6414273832858368,-0.7082801372144257 l 25.379606781053045 23.38482297529487" fill="#ffd313" stroke="none" /><line stroke="#e1ed5e" stroke-width="0.3" x1="56.762969772571076" x2="54.21961505331055" y1="26.818313649435495" y2="22.513508569990535" /><path d="M 56.25429882871897 25.957352633546506 a86.0,86.0 0 0,1 42.265352541879196,-11.944610805530505" fill="none" id="id24" stroke="none" /><text fill="#e1ed5e" style="font-size:6.75px; font-family:Arial;" text-anchor="middle"><textPath startOffset="22.20632615414155" xlink:href="#id24">December</textPath></text><path d="M 89.3179101791058 81.91981866633112 l -17.189678835603452 -29.094729179989596 a54.79331774963996,54.79331774963996 0 0,0 0.816168039578728,-0.47277720852575694 l 16.6863140635594 29.3863105459054" fill="#ffc412" stroke="none" /></svg>